<svg width="175" height="175" viewBox="0 0 175 175" fill="none" xmlns="http://www.w3.org/2000/svg">
<path d="M91.3795 17.0203H92.9455L88.5175 11.4223L92.5675 7.55231L90.9835 7.55231L85.3315 12.7183V3.66431L84.0535 3.66431V17.0203H85.3315V14.3203L87.5635 12.2683L91.3795 17.0203Z" fill="white"/>
<path d="M103.917 14.0062C104.362 11.1972 102.767 8.95803 100.135 8.54129C97.5043 8.12455 95.2539 9.79103 94.8146 12.5645C94.3753 15.3379 96.0512 17.6444 98.9668 18.1062C100.442 18.3399 101.825 18.0121 102.818 17.1489L102.236 16.2185C101.396 16.9236 100.318 17.172 99.1798 16.9918C97.1352 16.668 95.8474 15.1337 96.0149 13.1555L103.837 14.3945C103.86 14.2522 103.9 14.1128 103.917 14.0062ZM99.9637 9.62577C101.795 9.9158 102.926 11.407 102.796 13.2636L96.1642 12.2132C96.6142 10.4074 98.1503 9.33856 99.9637 9.62577Z" fill="white"/>
<path d="M115.133 17.5239C116.012 14.8191 114.786 12.3579 112.253 11.5347C109.719 10.7115 107.236 12.0054 106.368 14.676C105.5 17.3465 106.795 19.8868 109.602 20.7991C111.023 21.2607 112.44 21.1532 113.556 20.456L113.127 19.446C112.186 20.011 111.082 20.0877 109.987 19.7317C108.018 19.092 106.986 17.3751 107.461 15.4475L114.993 17.8949C115.038 17.758 115.1 17.6266 115.133 17.5239ZM111.913 12.579C113.677 13.1519 114.56 14.8016 114.141 16.6149L107.756 14.5402C108.483 12.827 110.167 12.0116 111.913 12.579Z" fill="white"/>
<path d="M124.232 16.631C122.837 15.9201 121.355 15.933 120.094 16.7043L120.944 15.0363L119.853 14.4806L113.969 26.0281L115.108 26.6083L117.502 21.9091C117.652 23.3593 118.513 24.525 119.86 25.2114C122.266 26.4372 124.945 25.6203 126.252 23.0542C127.551 20.5042 126.638 17.8568 124.232 16.631ZM120.295 24.1602C118.498 23.2449 117.821 21.2434 118.826 19.2707C119.823 17.314 121.849 16.6693 123.645 17.5845C125.425 18.4916 126.11 20.5174 125.113 22.474C124.108 24.4467 122.075 25.0672 120.295 24.1602Z" fill="white"/>
<path d="M136.617 37.5931C138.577 39.5532 141.441 39.566 143.427 37.5804C145.412 35.5949 145.387 32.7438 143.427 30.7837C141.467 28.8236 138.603 28.7854 136.617 30.771C134.632 32.7565 134.657 35.633 136.617 37.5931ZM137.419 36.7913C135.994 35.3658 135.968 33.2529 137.534 31.6874C139.099 30.1219 141.212 30.1473 142.638 31.5728C144.063 32.9984 144.076 35.0985 142.51 36.664C140.945 38.2295 138.845 38.2168 137.419 36.7913Z" fill="white"/>
<path d="M152.123 41.0892C151.16 39.764 149.87 39.1215 148.536 39.2453L149.948 38.219L149.229 37.2288L141.569 42.7939L142.32 43.8279L146.34 40.9077C148.087 39.6381 149.858 39.9314 151.053 41.577C152.111 43.0332 151.895 44.4809 150.278 45.6553L145.939 48.8082L146.69 49.8421L151.131 46.6152C153.33 45.0176 153.477 42.9531 152.123 41.0892Z" fill="white"/>
<path d="M153.794 65.8132C154.556 68.1585 156.011 69.1999 157.569 68.6937C161.027 67.5701 157.298 62.3277 159.729 61.5378C160.585 61.2597 161.452 61.7729 161.981 63.3992C162.281 64.3237 162.364 65.3375 162.072 66.303L163.221 66.5166C163.489 65.5965 163.403 64.224 163.025 63.0599C162.279 60.766 160.772 59.8552 159.3 60.3335C155.739 61.4905 159.485 66.7273 157.14 67.4894C156.249 67.7786 155.439 67.2659 154.883 65.5539C154.471 64.2871 154.522 62.9271 154.853 62.0245L153.716 61.7882C153.322 62.7301 153.31 64.3239 153.794 65.8132Z" fill="white"/>
<path d="M156.404 77.2047C156.654 78.787 157.505 80.019 158.833 80.5742L159.323 79.5306C158.28 79.0398 157.695 78.1118 157.524 77.0273C157.2 74.9828 158.403 73.2613 160.608 72.9122C162.795 72.5658 164.489 73.8283 164.813 75.8728C164.985 76.9573 164.698 78.0233 163.857 78.8126L164.646 79.6534C165.755 78.7125 166.166 77.2805 165.915 75.6983C165.473 72.907 163.196 71.19 160.405 71.6321C157.614 72.0742 155.961 74.4135 156.404 77.2047Z" fill="white"/>
<path d="M164.791 86.414H166.645V85.19H157.177V86.468H162.001C164.233 86.468 165.493 87.674 165.493 89.654C165.493 89.744 165.475 89.852 165.475 89.96H166.717C166.717 88.214 166.051 87.008 164.791 86.414Z" fill="white"/>
<path d="M156.225 97.966C155.791 100.704 157.464 103.028 160.237 103.467C163.011 103.907 165.302 102.21 165.736 99.4724C166.17 96.7345 164.517 94.3952 161.744 93.956C158.97 93.5167 156.658 95.2281 156.225 97.966ZM157.345 98.1433C157.66 96.1522 159.354 94.8897 161.541 95.236C163.728 95.5824 164.949 97.3067 164.634 99.2978C164.318 101.289 162.627 102.534 160.44 102.187C158.253 101.841 157.029 100.135 157.345 98.1433Z" fill="white"/>
<path d="M153.792 108.523L153.397 109.739L166.1 113.866L166.495 112.65L153.792 108.523Z" fill="white"/>
<path d="M149.609 118.679L149.028 119.818L160.929 125.882L161.509 124.743L149.609 118.679Z" fill="white"/>
<path d="M152.841 135.362C152.523 135.799 152.626 136.363 153.048 136.67C153.441 136.955 154.005 136.853 154.312 136.431C154.618 136.008 154.527 135.43 154.134 135.145C153.726 134.848 153.148 134.94 152.841 135.362ZM143.887 128.056L143.136 129.09L150.796 134.655L151.547 133.621L143.887 128.056Z" fill="white"/>
<path d="M142.702 143.981C143.86 142.823 144.293 141.449 143.962 140.15L145.197 141.385L146.062 140.519L139.367 133.825L138.464 134.728L141.977 138.241C143.504 139.768 143.491 141.563 142.053 143.001C140.78 144.274 139.317 144.287 137.904 142.874L134.111 139.081L133.207 139.985L137.089 143.867C139.011 145.789 141.073 145.611 142.702 143.981Z" fill="white"/>
<path d="M130.931 153.459L129.862 151.988C131.233 152.528 132.72 152.248 134.002 151.317C136.186 149.73 136.757 147.024 135.159 144.825C133.561 142.626 130.79 142.303 128.606 143.89C127.354 144.8 126.632 146.103 126.7 147.544L125.991 146.568C124.616 144.675 124.859 143.142 126.795 141.735C127.975 140.878 129.367 140.467 130.572 140.593L130.524 139.426C129.173 139.25 127.498 139.823 126.1 140.838C123.566 142.679 123.137 144.815 125.052 147.451L129.94 154.179L130.931 153.459ZM129.171 144.881C130.86 143.654 132.904 143.926 134.111 145.586C135.317 147.247 134.933 149.261 133.244 150.488C131.555 151.715 129.506 151.468 128.3 149.808C127.094 148.148 127.481 146.109 129.171 144.881Z" fill="white"/>
<path d="M109.533 157.447C109.02 157.613 108.737 158.141 108.915 158.689C109.093 159.236 109.632 159.497 110.145 159.33C110.659 159.163 110.925 158.641 110.747 158.093C110.569 157.546 110.047 157.28 109.533 157.447Z" fill="white"/>
<path d="M82.974 157.02H81.408L85.836 162.618L81.786 166.488H83.37L89.022 161.322V170.376H90.3V157.02H89.022V159.72L86.79 161.772L82.974 157.02Z" fill="white"/>
<path d="M70.4364 160.034C69.9915 162.843 71.5868 165.083 74.218 165.499C76.8492 165.916 79.0996 164.25 79.5389 161.476C79.9782 158.703 78.3024 156.396 75.3867 155.934C73.9111 155.701 72.5288 156.028 71.5355 156.892L72.1171 157.822C72.9578 157.117 74.0359 156.869 75.1738 157.049C77.2183 157.373 78.5061 158.907 78.3386 160.885L70.5161 159.646C70.4936 159.788 70.4533 159.928 70.4364 160.034ZM74.3898 164.415C72.5586 164.125 71.428 162.634 71.558 160.777L78.1893 161.827C77.7393 163.633 76.2032 164.702 74.3898 164.415Z" fill="white"/>
<path d="M59.2206 156.517C58.3417 159.222 59.5672 161.683 62.1008 162.506C64.6344 163.329 67.1178 162.035 67.9855 159.365C68.8532 156.694 67.5589 154.154 64.7513 153.242C63.3305 152.78 61.9139 152.887 60.7978 153.585L61.2267 154.595C62.1673 154.03 63.2711 153.953 64.3667 154.309C66.3354 154.949 67.3673 156.666 66.8924 158.593L59.36 156.146C59.3155 156.283 59.2539 156.414 59.2206 156.517ZM62.4401 161.462C60.6768 160.889 59.7934 159.239 60.2122 157.426L66.5976 159.5C65.8706 161.214 64.1862 162.029 62.4401 161.462Z" fill="white"/>
<path d="M50.1215 157.41C51.5168 158.121 52.9981 158.108 54.2598 157.336L53.4099 159.004L54.5005 159.56L60.3843 148.013L59.2455 147.432L56.8512 152.132C56.7012 150.681 55.8406 149.516 54.4934 148.829C52.0877 147.603 49.4089 148.42 48.1014 150.986C46.8021 153.536 47.7158 156.184 50.1215 157.41ZM54.0588 149.88C55.8551 150.796 56.5322 152.797 55.5271 154.77C54.5301 156.727 52.5046 157.371 50.7084 156.456C48.9281 155.549 48.2432 153.523 49.2401 151.567C50.2453 149.594 52.2786 148.973 54.0588 149.88Z" fill="white"/>
<path d="M37.7363 136.447C35.7762 134.487 32.9124 134.475 30.9268 136.46C28.9413 138.446 28.9667 141.297 30.9268 143.257C32.8869 145.217 35.7507 145.255 37.7363 143.27C39.7218 141.284 39.6964 138.408 37.7363 136.447ZM36.9344 137.249C38.3599 138.675 38.3854 140.788 36.8198 142.353C35.2543 143.919 33.1415 143.893 31.716 142.468C30.2904 141.042 30.2777 138.942 31.8432 137.377C33.4088 135.811 35.5089 135.824 36.9344 137.249Z" fill="white"/>
<path d="M22.2308 132.951C23.1936 134.277 24.4836 134.919 25.8176 134.795L24.4051 135.822L25.1245 136.812L32.7843 131.247L32.0331 130.213L28.0139 133.133C26.2665 134.402 24.4959 134.109 23.3003 132.464C22.2423 131.007 22.4587 129.56 24.0752 128.385L28.4147 125.232L27.6635 124.199L23.222 127.425C21.0231 129.023 20.8766 131.087 22.2308 132.951Z" fill="white"/>
<path d="M20.5596 108.227C19.7976 105.882 18.3426 104.841 16.7848 105.347C13.3267 106.471 17.0552 111.713 14.6243 112.503C13.7683 112.781 12.9013 112.268 12.3729 110.641C12.0725 109.717 11.9892 108.703 12.2811 107.738L11.1329 107.524C10.8641 108.444 10.9504 109.817 11.3286 110.981C12.074 113.275 13.5812 114.185 15.0535 113.707C18.6142 112.55 14.8686 107.313 17.2139 106.551C18.1041 106.262 18.9142 106.775 19.4704 108.487C19.882 109.753 19.8319 111.114 19.5006 112.016L20.6372 112.252C21.0314 111.31 21.0435 109.717 20.5596 108.227Z" fill="white"/>
<path d="M17.95 96.8359C17.6994 95.2536 16.8481 94.0216 15.5209 93.4664L15.0302 94.51C16.0738 95.0008 16.6582 95.9288 16.8299 97.0133C17.1537 99.0578 15.9502 100.779 13.7457 101.128C11.559 101.475 9.8646 100.212 9.54078 98.1678C9.36901 97.0833 9.65579 96.0173 10.4967 95.2281L9.70741 94.3872C8.59897 95.3282 8.18791 96.7601 8.43852 98.3424C8.8806 101.134 11.1572 102.851 13.9484 102.408C16.7396 101.966 18.392 99.6271 17.95 96.8359Z" fill="white"/>
<path d="M9.56276 87.6266H7.70876V88.8506H17.1768V87.5726H12.3528C10.1208 87.5726 8.86076 86.3666 8.86076 84.3866C8.86076 84.2966 8.87876 84.1886 8.87876 84.0806H7.63676C7.63676 85.8266 8.30276 87.0326 9.56276 87.6266Z" fill="white"/>
<path d="M18.1289 76.0747C18.5626 73.3368 16.8896 71.0125 14.1161 70.5732C11.3427 70.1339 9.05112 71.8303 8.61749 74.5682C8.18385 77.3061 9.83625 79.6454 12.6097 80.0846C15.3831 80.5239 17.6953 78.8125 18.1289 76.0747ZM17.0089 75.8973C16.6935 77.8885 14.9992 79.1509 12.8124 78.8046C10.6257 78.4582 9.40437 76.734 9.71975 74.7428C10.0351 72.7516 11.7267 71.5069 13.9134 71.8532C16.1001 72.1996 17.3243 73.9061 17.0089 75.8973Z" fill="white"/>
<path d="M20.5611 65.5175L20.956 64.3021L8.25368 60.1748L7.85876 61.3903L20.5611 65.5175Z" fill="white"/>
<path d="M24.745 55.3612L25.3252 54.2225L13.4249 48.159L12.8447 49.2978L24.745 55.3612Z" fill="white"/>
<path d="M21.5127 38.6784C21.8301 38.2416 21.7279 37.6779 21.3056 37.371C20.9124 37.0854 20.3487 37.1875 20.0419 37.6098C19.7351 38.0322 19.8266 38.6104 20.2198 38.8961C20.6276 39.1923 21.2058 39.1007 21.5127 38.6784ZM30.4662 45.9846L31.2174 44.9506L23.5576 39.3855L22.8065 40.4194L30.4662 45.9846Z" fill="white"/>
<path d="M31.6513 30.0592C30.4931 31.2174 30.0603 32.5921 30.3913 33.8903L29.1566 32.6557L28.2911 33.5212L34.986 40.2161L35.8897 39.3124L32.3768 35.7995C30.8495 34.2721 30.8622 32.4775 32.3004 31.0392C33.5732 29.7665 35.0369 29.7537 36.4497 31.1665L40.2427 34.9594L41.1463 34.0558L37.2643 30.1737C35.3424 28.2518 33.2805 28.43 31.6513 30.0592Z" fill="white"/>
<path d="M43.4228 20.5815L44.4914 22.0523C43.1207 21.5131 41.633 21.7929 40.3515 22.724C38.1672 24.311 37.5969 27.017 39.1945 29.2159C40.7921 31.4148 43.5631 31.7378 45.7474 30.1507C46.9998 29.2408 47.7216 27.9376 47.6535 26.4964L48.3624 27.4721C49.7378 29.3652 49.4949 30.8989 47.5581 32.3061C46.3786 33.1631 44.9862 33.574 43.7819 33.4477L43.829 34.6149C45.1801 34.7903 46.8558 34.218 48.2538 33.2023C50.7876 31.3614 51.2161 29.2256 49.3011 26.5899L44.4131 19.8621L43.4228 20.5815ZM45.1828 29.1592C43.4936 30.3865 41.4491 30.1143 40.2429 28.4542C39.0368 26.7941 39.4202 24.7801 41.1095 23.5528C42.7987 22.3255 44.8472 22.5726 46.0533 24.2327C47.2594 25.8928 46.872 27.9319 45.1828 29.1592Z" fill="white"/>
<path d="M64.82 16.594C65.3336 16.4271 65.6165 15.8999 65.4385 15.3521C65.2605 14.8043 64.7218 14.544 64.2082 14.7109C63.6946 14.8778 63.4288 15.3995 63.6068 15.9473C63.7848 16.4951 64.3065 16.7609 64.82 16.594Z" fill="white"/>
</svg>
